<?xml version="1.0" standalone="no"?>
<!DOCTYPE svg PUBLIC "-//W3C//DTD SVG 20010904//EN"
 "http://www.w3.org/TR/2001/REC-SVG-20010904/DTD/svg10.dtd">
<svg version="1.0" xmlns="http://www.w3.org/2000/svg"
 width="589.000000pt" height="600.000000pt" viewBox="0 0 589.000000 600.000000"
 preserveAspectRatio="xMidYMid meet">
<metadata>
Created by potrace 1.16, written by Peter Selinger 2001-2019
</metadata>
<g transform="translate(0.000000,600.000000) scale(0.100000,-0.100000)"
fill="#000000" stroke="none">
<path d="M0 5280 l0 -720 40 0 c22 0 40 4 40 9 0 17 40 23 99 16 49 -6 60 -11
70 -31 16 -36 14 -49 -14 -82 -14 -17 -25 -32 -25 -35 0 -4 17 -11 38 -17 33
-9 39 -8 58 13 11 13 30 26 42 29 19 5 22 2 22 -25 0 -21 12 -45 40 -78 47
-56 49 -72 15 -95 -20 -13 -40 -16 -94 -11 -37 3 -84 2 -104 -2 -36 -9 -74
-38 -72 -56 3 -31 18 -52 46 -64 18 -8 35 -25 41 -42 5 -16 14 -29 19 -29 17
0 26 -64 12 -86 -11 -17 -23 -20 -90 -20 -72 1 -78 2 -75 21 2 11 9 23 14 26
7 4 8 25 3 55 l-7 48 -16 -27 c-13 -20 -25 -27 -49 -27 -35 0 -43 -13 -17 -28
16 -9 34 -71 37 -124 2 -24 7 -28 43 -34 36 -5 51 -16 103 -75 42 -46 70 -69
85 -69 12 0 26 -4 31 -8 6 -5 30 -15 54 -22 24 -8 45 -19 48 -26 2 -6 25 -14
51 -18 40 -5 56 -15 102 -60 41 -40 55 -62 55 -82 0 -19 7 -32 22 -39 24 -12
56 -45 78 -80 19 -28 29 -101 16 -110 -6 -3 -11 -13 -11 -21 0 -19 37 -18 57
2 11 10 25 14 42 9 14 -3 38 -9 53 -12 26 -5 66 -42 87 -81 6 -11 11 -47 11
-79 1 -38 9 -77 24 -111 40 -94 13 -135 -95 -146 -63 -6 -67 -5 -83 19 -12 19
-25 25 -51 25 -39 0 -65 -14 -155 -85 -117 -92 -133 -116 -88 -131 16 -5 25
-2 33 11 46 81 179 177 214 156 18 -11 -1 -77 -35 -121 -19 -26 -24 -29 -19
-12 7 23 -9 32 -18 10 -4 -10 -6 -9 -6 1 -1 11 -6 10 -21 -4 -20 -18 -29 -82
-10 -70 5 3 10 2 10 -4 0 -5 -4 -12 -9 -16 -5 -3 -15 -22 -22 -42 -13 -41 -25
-56 -51 -66 -18 -6 -26 -61 -10 -70 4 -2 1 -2 -5 -1 -7 2 -13 -2 -13 -9 0 -8
-4 -6 -10 3 -7 11 -10 12 -10 2 0 -10 -4 -10 -16 2 -8 9 -26 16 -40 16 -13 0
-24 5 -24 10 0 13 -49 -21 -50 -34 0 -5 7 -3 15 4 9 8 15 8 15 2 0 -16 -20
-19 -64 -11 -22 4 -49 4 -60 -1 -12 -4 -49 -5 -83 -2 -42 3 -63 1 -63 -7 0 -6
-11 -8 -30 -5 -23 5 -38 0 -70 -26 -54 -43 -75 -111 -68 -225 7 -108 37 -168
106 -213 55 -36 87 -40 113 -16 17 15 19 15 34 0 9 -9 30 -16 46 -16 16 0 29
-5 29 -12 0 -6 -14 -47 -31 -90 -23 -57 -36 -78 -49 -78 -21 0 -80 31 -80 43
0 4 -12 7 -27 7 -14 0 -48 14 -74 31 -52 33 -69 32 -69 -7 0 -14 -7 -27 -15
-30 -12 -5 -15 -29 -15 -129 l0 -122 133 -7 c72 -4 135 -11 139 -15 22 -21 25
-103 6 -198 -10 -54 -17 -120 -15 -148 12 -138 12 -137 61 -181 25 -23 46 -47
46 -52 0 -15 27 -21 89 -21 29 1 56 -3 60 -8 10 -14 221 -16 221 -2 0 20 112
362 131 399 41 82 136 145 303 202 75 25 100 38 107 55 5 13 17 23 27 23 23 0
42 19 42 42 0 9 9 22 20 28 21 11 22 10 24 -40 1 -24 4 -25 51 -23 68 3 195
32 195 44 0 6 5 7 10 4 6 -3 10 -2 10 2 0 5 15 10 32 11 18 2 37 7 42 12 4 4
14 6 21 3 16 -5 31 76 20 104 -4 10 -9 49 -11 87 -3 37 -11 78 -19 89 -17 24
-20 41 -5 32 6 -3 7 1 4 9 -3 9 -11 16 -16 16 -6 0 -8 7 -5 15 4 8 2 17 -4 21
-7 4 -6 10 1 19 6 7 8 19 4 28 -3 8 -1 18 5 22 6 3 11 15 11 25 0 20 48 75 65
75 14 0 18 86 6 118 -7 19 -15 25 -26 20 -18 -6 -58 11 -94 42 l-24 20 7 -35
c4 -19 9 -57 12 -85 4 -40 2 -45 -6 -27 -5 13 -17 30 -25 38 -17 18 -20 61 -4
66 7 2 6 13 -2 33 l-13 30 -3 -30 c-5 -39 -23 -86 -32 -81 -4 3 -7 -3 -8 -12
-1 -9 -6 -35 -13 -57 -21 -77 -23 -177 -4 -314 18 -138 15 -162 -20 -169 -13
-3 -14 1 -7 20 7 20 4 25 -20 35 -18 7 -31 22 -35 40 -4 15 -12 31 -18 35 -8
5 -8 8 0 8 6 0 9 13 6 32 -4 26 -6 29 -11 14 -4 -10 -7 11 -7 45 1 35 -1 87
-2 114 -3 46 1 84 14 126 2 9 19 21 37 27 27 10 27 11 5 7 -16 -3 -28 -1 -28
5 0 5 3 9 8 9 4 -1 18 0 32 1 l25 2 -27 7 -26 6 16 35 c13 27 24 36 47 38 52
6 65 31 36 66 -17 20 -32 21 -25 2 3 -8 1 -17 -5 -21 -7 -3 -11 2 -11 13 0 15
-16 26 -67 47 -38 15 -74 31 -80 37 -10 8 -13 6 -13 -7 0 -15 -2 -15 -16 -4
-13 11 -14 13 0 21 10 6 13 18 9 43 -4 23 0 43 11 59 15 23 15 26 -2 35 -9 6
-12 11 -7 11 6 0 11 21 13 48 1 26 3 58 5 72 2 20 -5 27 -38 38 -22 8 -57 14
-78 14 -23 1 -34 4 -26 9 7 4 14 15 15 24 3 24 25 46 37 38 5 -3 7 -1 4 5 -9
13 52 65 69 58 8 -3 11 0 8 8 -6 15 40 31 58 20 7 -4 8 -3 4 5 -9 13 17 42 42
46 56 9 175 -96 239 -210 51 -91 67 -136 97 -275 33 -149 45 -274 41 -433 -1
-70 2 -130 6 -133 10 -6 12 -65 3 -89 -5 -11 -9 -13 -14 -6 -3 6 -12 -19 -19
-56 -8 -38 -22 -97 -33 -131 -11 -35 -17 -66 -15 -69 3 -2 25 -1 50 2 l45 7
20 106 c12 59 24 139 27 177 14 154 13 152 40 141 9 -3 13 -10 10 -16 -3 -5
-1 -10 4 -10 15 0 17 0 48 -9 16 -5 37 -5 48 0 11 4 14 8 7 8 -21 1 -3 21 19
21 16 0 19 -7 19 -49 0 -70 -6 -82 -36 -71 -18 7 -24 6 -24 -4 0 -8 -16 -16
-40 -20 -43 -7 -63 -32 -39 -47 11 -7 11 -9 -3 -9 -10 0 -18 -5 -18 -11 0 -5
-4 -7 -10 -4 -15 9 -12 -11 4 -24 11 -10 15 -8 19 6 4 15 5 14 6 -4 1 -16 -4
-21 -18 -20 -11 0 -17 5 -14 11 4 5 1 6 -7 1 -11 -7 -11 -10 2 -19 15 -9 15
-13 1 -48 -9 -22 -12 -49 -9 -64 l7 -27 80 6 c44 4 84 9 89 12 5 3 16 39 25
80 10 41 21 78 26 81 5 3 9 30 9 60 0 30 4 54 9 54 6 0 12 21 14 48 2 26 2 -6
-1 -72 -2 -65 -10 -146 -17 -180 -7 -33 -12 -62 -11 -63 0 0 37 5 80 13 44 7
81 13 82 11 8 -8 -34 -177 -44 -176 -30 5 -62 -3 -56 -13 5 -7 3 -8 -5 -4 -7
5 -10 14 -7 22 3 8 1 14 -4 14 -6 0 -10 -6 -10 -14 0 -17 -21 -26 -60 -26
l-28 0 17 80 c10 44 14 80 10 80 -9 0 -14 -16 -29 -101 l-12 -65 -35 -2 c-20
-2 -40 -5 -45 -8 -4 -3 -7 4 -5 16 2 12 9 25 17 30 7 4 10 15 7 23 -3 8 0 20
6 26 6 6 8 13 5 16 -9 9 -90 -13 -99 -27 -16 -24 -5 -43 24 -41 29 2 37 -17
15 -35 -16 -12 -78 -26 -78 -17 0 3 7 38 16 76 9 39 13 73 10 76 -8 8 -12 -7
-50 -202 -2 -14 -4 -10 -6 10 l-3 30 -7 -35 -7 -35 -3 35 -3 35 -7 -40 -7 -40
-2 39 c-1 29 -4 37 -16 32 -10 -4 -15 1 -16 17 0 21 -1 21 -8 2 -5 -11 -7 -23
-5 -26 2 -4 -4 -6 -14 -5 -13 1 -17 -7 -17 -31 -1 -47 -15 -53 -16 -7 l-2 39
-7 -40 -7 -40 -3 40 -3 40 -7 -45 -7 -45 -1 60 c-1 34 5 87 13 118 18 68 18
74 6 62 -13 -13 -31 -116 -32 -184 -2 -51 -2 -53 -9 -21 l-7 35 -3 -40 -3 -40
-7 40 -7 40 -3 -40 -3 -40 -7 40 c-4 22 -8 33 -9 24 -1 -16 -31 -23 -31 -7 0
4 -9 0 -19 -9 -24 -20 -17 -37 10 -23 16 9 19 7 19 -9 0 -12 -11 -23 -32 -30
-17 -6 -33 -9 -36 -6 -3 3 -12 -1 -20 -8 -13 -10 -14 4 -10 118 2 72 1 119 -3
105 -4 -14 -7 -71 -8 -126 -1 -79 -4 -103 -15 -107 -11 -4 -16 3 -19 26 l-4
32 -1 -31 c-2 -28 -7 -33 -47 -46 -41 -14 -45 -14 -46 1 0 13 -1 14 -6 1 -10
-24 -27 -31 -35 -12 -6 15 -7 15 -7 1 -1 -11 -21 -22 -64 -34 -108 -31 -136
-34 -140 -16 -3 10 -5 8 -6 -6 0 -13 -2 -23 -4 -23 -16 0 -155 -58 -202 -85
-89 -49 -93 -56 -66 -112 20 -42 24 -45 54 -40 122 20 181 26 245 27 51 0 72
4 72 13 0 9 2 9 9 -1 4 -8 41 -18 83 -23 201 -25 525 -102 588 -140 l32 -20
-7 -147 c-8 -152 -8 -272 0 -280 2 -2 58 0 124 6 82 8 134 18 166 32 27 12 85
25 137 31 49 5 97 13 107 19 21 11 270 28 349 24 45 -2 52 -1 42 11 -9 11 -9
18 3 30 12 11 16 12 20 2 3 -8 11 -6 28 8 l23 20 -17 -27 c-19 -31 -22 -42 -7
-33 6 4 17 2 25 -5 11 -9 17 -6 30 14 20 30 35 34 35 8 0 -25 7 -31 32 -24 18
4 20 11 15 48 -3 27 0 50 8 61 12 16 13 15 8 -10 -3 -14 -3 -37 1 -50 5 -20
10 -22 45 -19 29 3 42 10 46 23 8 24 24 27 165 33 63 2 129 9 145 16 l30 12
-30 12 c-166 71 -223 119 -287 243 -25 48 -51 111 -58 138 -7 28 -16 55 -20
60 -6 8 -29 120 -46 225 -6 32 14 93 60 193 32 70 34 77 14 63 -23 -17 -69
-21 -82 -9 -4 4 8 13 26 19 l33 11 -53 7 c-49 6 -53 9 -46 29 3 12 11 28 17
35 13 16 8 20 -66 54 l-62 29 65 -6 c36 -3 71 -1 79 4 7 4 21 27 32 50 l18 41
-32 0 -32 1 44 21 c37 18 41 23 25 29 -10 4 -13 8 -6 8 7 1 12 14 12 31 0 24
-4 30 -22 30 -13 0 -30 5 -38 10 -11 7 -7 10 18 10 90 0 246 -39 210 -53 -10
-4 -9 -6 2 -7 8 -1 -10 -8 -40 -15 -52 -12 -53 -13 -18 -14 29 -1 36 -4 32
-16 -4 -8 -2 -15 4 -15 6 0 12 5 14 12 2 6 10 8 16 4 9 -5 9 -13 1 -27 -8 -16
-14 -18 -24 -9 -17 14 -24 3 -31 -53 -4 -26 -2 -47 4 -51 6 -4 8 2 4 16 -3 14
-2 19 7 14 7 -5 13 4 17 24 l7 31 17 -26 c10 -15 20 -22 24 -17 3 6 0 13 -6
15 -7 3 -3 6 10 6 13 1 55 21 94 46 55 36 89 50 161 66 51 10 104 23 120 28
16 6 27 6 27 0 0 -5 17 -9 38 -9 49 -1 137 -22 196 -49 51 -22 67 -26 64 -13
-1 4 3 16 9 27 6 11 14 39 18 62 4 24 10 45 14 48 4 2 23 0 42 -5 27 -8 47
-28 94 -92 54 -75 220 -248 237 -248 4 0 18 -10 31 -22 34 -32 87 -75 117 -95
14 -9 45 -36 70 -59 61 -57 172 -130 192 -126 18 3 14 31 -6 44 -7 5 -7 8 2 8
7 0 27 6 45 13 18 8 34 14 37 15 3 0 23 7 45 16 22 8 69 22 105 31 98 24 200
65 200 80 0 50 -93 35 -225 -38 -46 -25 -98 -47 -101 -44 -2 2 13 37 32 78 20
41 45 99 55 129 16 49 16 52 1 30 -9 -14 -32 -41 -49 -61 -18 -20 -33 -42 -33
-49 0 -9 -6 -7 -20 5 -11 10 -17 21 -15 25 3 5 -3 6 -13 3 -32 -8 -22 40 12
56 19 10 24 17 15 20 -8 2 -19 11 -25 19 -8 11 -13 5 -24 -29 -7 -24 -13 -51
-11 -59 2 -13 1 -13 -8 0 -6 9 -23 13 -45 12 -20 -2 -36 2 -36 7 0 18 23 60
30 56 14 -9 33 57 32 106 -1 34 3 47 10 43 7 -5 8 -2 4 5 -5 7 -5 32 -2 56 6
35 18 55 61 99 29 31 58 56 63 56 6 0 12 7 16 15 3 8 16 15 28 15 47 0 68 -12
77 -44 6 -20 10 -24 10 -11 1 11 4 36 7 55 6 33 4 36 -22 38 -16 1 -34 8 -41
15 -16 15 -39 201 -35 282 1 33 4 132 5 220 3 158 3 161 -26 230 -28 65 -84
174 -97 185 -3 3 -25 32 -50 64 -65 85 -205 206 -286 245 -98 48 -171 63 -309
65 -117 1 -122 0 -215 -38 -52 -21 -116 -54 -143 -72 -26 -19 -49 -34 -52 -34
-3 0 -5 11 -5 24 0 14 -4 28 -10 31 -5 3 -10 -3 -10 -15 0 -13 -4 -19 -11 -14
-6 3 -5 -4 3 -17 12 -20 16 -81 9 -141 -1 -5 -11 -8 -23 -8 -16 0 -19 -3 -10
-8 7 -5 15 -37 17 -77 3 -37 7 -70 10 -73 3 -3 5 2 5 12 0 9 4 15 9 12 5 -4 6
-18 2 -34 -6 -22 -15 -28 -47 -33 -38 -6 -38 -6 -6 -8 41 -1 72 -17 72 -36 0
-28 27 -14 97 52 16 16 57 42 89 58 54 27 68 30 159 30 91 0 105 -3 156 -29
146 -75 246 -224 303 -452 20 -77 20 -77 -3 -64 -25 13 -36 -2 -21 -31 10 -18
9 -20 -12 -17 -17 2 -24 -2 -26 -20 -2 -12 -7 -22 -11 -22 -4 0 -16 -7 -27
-16 -19 -15 -18 -15 4 -11 30 7 28 -9 -2 -17 -13 -3 -27 -16 -31 -28 l-7 -23
-8 25 c-8 26 -8 27 -9 -118 0 -30 -5 -44 -16 -49 -12 -4 -13 -8 -5 -13 15 -9
4 -30 -16 -30 -8 0 -14 9 -14 20 0 19 -13 24 -57 23 -7 0 -9 11 -6 33 4 23 1
40 -9 52 -8 9 -22 46 -32 82 -10 36 -22 73 -27 83 -5 10 -7 22 -4 27 4 6 3 10
-2 10 -4 0 -9 21 -10 46 -2 54 -16 74 -54 74 -15 0 -30 4 -34 9 -9 15 -138 74
-158 73 -9 0 -32 -12 -49 -26 -29 -22 -32 -30 -33 -80 0 -54 -2 -57 -35 -74
-27 -13 -36 -24 -38 -47 -5 -60 -12 -73 -43 -84 l-30 -10 3 -151 3 -150 -47
-25 c-25 -14 -64 -31 -85 -39 l-39 -14 -3 57 c-5 109 -4 105 -47 112 l-39 6
36 2 c45 1 48 5 39 46 -7 32 -6 34 21 40 16 4 27 11 23 16 -3 5 0 9 7 9 7 0
10 3 7 6 -4 3 -17 -1 -30 -9 -12 -8 -36 -17 -53 -21 l-30 -6 27 15 c20 11 27
22 24 38 -4 23 -5 24 -78 14 -41 -6 -48 -4 -49 11 0 14 -2 13 -9 -4 -6 -16
-24 -23 -82 -34 -40 -7 -79 -15 -85 -17 -8 -3 -13 3 -14 13 0 16 -2 16 -9 -3
-5 -12 -19 -27 -31 -33 -15 -8 -19 -9 -15 -1 9 14 11 14 -49 -4 -27 -9 -51
-15 -52 -15 -2 0 -11 0 -20 0 -16 -1 -16 -2 1 -15 21 -16 20 -16 -33 -21 -19
-1 -37 -6 -40 -11 -3 -4 -10 -9 -16 -9 -5 -1 -26 -5 -45 -8 -33 -6 -33 -5 10
13 56 25 50 25 -37 5 -37 -9 -93 -20 -123 -24 -30 -4 -63 -11 -72 -15 -15 -6
-18 -2 -18 23 0 28 4 32 35 38 25 4 35 12 35 25 0 10 -5 21 -10 24 -6 3 -7 17
-4 31 5 18 2 24 -9 24 -9 0 -19 -4 -22 -10 -14 -23 -31 -8 -32 27 l-2 38 11
-35 11 -35 10 45 c8 37 11 41 18 25 4 -11 8 -15 8 -8 1 6 9 10 19 9 9 -2 20 1
23 6 3 5 14 -37 24 -92 10 -55 22 -100 27 -100 10 0 11 -9 -12 96 -23 104 -23
107 -10 99 6 -3 10 -3 10 2 0 4 15 9 34 10 27 1 35 -3 39 -19 4 -14 0 -22 -14
-25 -14 -4 -18 -11 -13 -22 3 -9 7 -27 8 -41 1 -22 5 -25 36 -22 42 3 55 15
45 39 -5 10 -7 26 -6 36 1 9 -6 20 -16 24 -37 14 -42 39 -10 49 12 4 22 6 22
4 0 -2 9 2 21 8 19 10 21 7 33 -51 17 -87 32 -140 36 -135 3 2 -5 42 -16 88
-11 46 -17 97 -14 112 8 36 -3 77 -16 57 -10 -16 -10 -13 -14 52 -1 25 -6 80
-9 122 -8 81 -13 87 -78 87 l-28 0 -1 78 c-1 74 -2 75 -9 29 -10 -56 -20 -73
-20 -33 0 15 -4 25 -9 22 -5 -3 -11 3 -14 14 -3 11 -1 23 4 26 6 3 3 16 -6 31
-16 23 -15 25 4 30 12 3 21 7 21 9 0 10 -50 51 -56 45 -4 -3 -4 0 0 7 4 6 13
12 19 12 7 0 18 9 25 20 9 15 23 20 55 20 38 0 43 3 43 23 0 28 -12 37 -56 37
-55 0 -69 16 -20 23 23 3 44 8 48 11 8 9 -30 35 -50 36 -10 0 -18 6 -18 13 0
9 11 13 33 12 17 -1 39 1 48 6 10 5 21 3 29 -4 10 -9 11 -9 6 1 -5 8 1 12 21
13 15 0 22 3 16 6 -20 8 -15 21 10 26 12 2 -11 5 -52 6 -62 1 -72 3 -67 17 3
9 6 21 6 27 0 9 2 9 8 0 8 -12 62 -6 62 8 0 17 -46 20 -92 5 -27 -8 -48 -12
-48 -9 0 11 88 42 107 37 11 -3 24 -1 27 5 5 7 -10 11 -44 11 -44 0 -51 3 -48
18 2 11 13 17 31 17 15 -1 27 3 27 7 0 4 -15 8 -32 9 -28 0 -30 2 -13 9 11 5
36 9 55 10 l35 2 -30 8 -30 8 30 1 c17 1 53 4 82 7 50 6 53 6 65 -22 l13 -28
5 30 c5 27 8 29 55 30 95 3 95 3 95 23 0 24 13 33 60 42 32 6 31 7 -17 8 -28
0 -53 -4 -55 -9 -2 -6 -14 -11 -28 -12 -46 -1 -80 -10 -74 -19 9 -15 -39 -28
-61 -16 -19 10 -18 12 10 18 29 7 29 7 -5 6 -27 -2 -34 -6 -32 -19 2 -13 -4
-18 -20 -18 -13 0 -69 -2 -125 -3 -73 -3 -103 0 -107 8 -6 17 45 40 54 25 5
-8 26 -6 73 6 61 15 65 18 54 35 -8 14 -23 19 -52 19 -23 0 -46 5 -52 11 -8 8
-18 6 -37 -6 -30 -20 -32 -14 -9 25 16 28 59 39 49 13 -6 -14 4 -16 28 -7 9 3
16 12 16 20 0 8 10 14 25 14 14 0 25 5 25 11 0 5 -4 7 -10 4 -5 -3 -18 -1 -27
4 -15 8 -15 11 -3 12 8 1 2 4 -15 8 -40 8 -44 36 -8 50 26 10 25 11 -12 6 -85
-10 -165 -12 -159 -4 7 12 69 21 151 23 38 0 70 6 73 11 8 15 -69 18 -87 3
-14 -11 -15 -10 -9 9 6 19 3 22 -26 25 -18 2 -48 -3 -67 -10 -18 -7 -35 -11
-38 -8 -9 9 69 36 106 37 20 0 45 4 56 9 17 6 14 9 -18 15 -21 4 -37 9 -35 10
2 2 54 0 116 -4 73 -4 111 -3 109 4 -2 5 -29 10 -59 10 -37 0 -54 4 -51 11 5
13 -61 29 -77 19 -6 -3 -10 -2 -10 3 0 5 18 12 39 16 50 8 56 17 31 49 -11 14
-20 32 -20 40 0 22 30 30 36 9 14 -42 27 -72 32 -72 2 0 13 10 24 22 l19 22 6
-22 c8 -32 41 -28 49 6 4 15 11 30 17 33 5 4 -6 10 -24 14 -19 4 -37 13 -41
19 -11 16 -10 66 1 66 11 0 21 -25 21 -51 0 -13 7 -19 23 -20 25 -2 50 1 55 6
9 8 -11 45 -24 45 -8 0 -14 3 -14 8 0 12 -58 72 -69 72 -6 0 -11 -9 -11 -20 0
-28 -17 -25 -37 8 -9 15 -18 29 -20 31 -1 2 -8 -1 -16 -7 -10 -8 -13 -6 -13 8
0 10 4 16 8 14 4 -3 8 5 8 18 0 13 4 28 10 34 14 14 1 52 -22 57 -11 3 -18 10
-15 14 15 24 -17 41 -76 42 l-29 1 7 85 c3 47 11 100 16 118 13 44 12 44 -14
6 -13 -19 -30 -33 -37 -31 -6 1 -18 -2 -24 -8 -7 -5 -15 -7 -19 -4 -8 8 -35
-48 -30 -62 2 -6 -4 -14 -13 -18 -15 -6 -16 1 -12 68 3 42 1 73 -4 70 -11 -7
-10 17 3 54 8 24 18 33 44 38 18 3 43 3 54 -1 15 -4 21 -2 21 8 0 9 -5 17 -11
19 -7 2 117 5 275 5 170 1 286 -2 286 -8 0 -5 26 -10 58 -10 31 -1 71 -5 87
-8 27 -7 24 -8 -27 -15 -56 -8 -58 -9 -58 -38 0 -28 2 -30 31 -26 26 4 34 -1
61 -39 19 -26 37 -42 45 -39 10 4 11 1 3 -14 -5 -10 -10 -30 -10 -43 0 -14 -7
-27 -15 -31 -8 -3 -15 -17 -15 -31 0 -23 -3 -25 -49 -25 -53 0 -58 -5 -66 -70
-6 -44 -25 -112 -41 -142 -14 -28 -47 -37 -59 -18 -15 24 -25 6 -25 -46 0 -57
-14 -84 -45 -84 -12 0 -35 -36 -35 -56 0 -9 55 9 71 22 8 8 24 14 35 14 16 0
17 2 4 10 -11 7 0 10 38 10 54 0 65 -6 33 -18 -11 -4 33 -6 97 -5 110 1 232
19 232 34 0 10 -23 26 -48 32 -18 4 -25 0 -32 -19 -13 -33 -23 -30 -15 4 5 25
2 30 -27 43 -17 7 -33 19 -35 25 -2 6 13 28 33 50 l36 39 -6 90 c-3 50 -6 99
-8 110 -3 16 5 20 45 26 49 8 75 19 44 19 -9 0 -17 4 -17 9 0 5 -6 16 -13 23
-6 7 -21 30 -32 52 -11 21 -26 40 -32 43 -7 3 -13 13 -13 22 0 11 7 7 24 -14
20 -25 26 -27 39 -17 13 11 22 6 58 -33 23 -25 48 -44 55 -41 9 3 15 -7 20
-29 3 -19 12 -39 20 -46 9 -7 14 -32 14 -69 0 -42 4 -59 15 -64 13 -4 15 9 15
84 0 192 -76 409 -196 556 -50 60 -51 64 -26 64 9 0 27 -15 40 -34 22 -32 73
-56 119 -56 11 0 32 -10 47 -21 20 -16 30 -19 39 -10 21 21 43 11 101 -45 70
-66 81 -71 171 -70 l70 1 5 50 c4 40 10 52 30 62 34 17 67 16 126 -3 62 -21
80 -37 88 -78 3 -18 19 -45 35 -60 26 -25 35 -28 73 -22 39 6 46 11 57 41 9
27 18 35 37 35 59 0 147 -78 147 -131 0 -37 -17 -51 -60 -46 -17 1 -30 0 -27
-4 2 -4 -8 -17 -23 -29 -24 -19 -36 -21 -87 -16 -62 6 -86 18 -86 43 0 10 -6
12 -22 7 -29 -9 -59 -46 -47 -58 5 -6 9 -18 9 -28 0 -11 12 -23 28 -29 68 -28
119 -55 142 -77 14 -13 37 -30 52 -39 14 -9 37 -39 50 -66 34 -74 53 -94 97
-102 44 -7 106 -64 116 -107 6 -23 0 -33 -42 -72 -26 -25 -54 -46 -60 -46 -7
0 -13 -4 -13 -10 0 -5 -9 -10 -21 -10 -25 0 -58 -17 -82 -41 -14 -15 -32 -19
-82 -19 -36 0 -65 -4 -65 -9 0 -18 -66 -50 -115 -56 -76 -10 -85 -21 -102
-124 -4 -25 -8 -30 -15 -20 -7 10 -8 8 -5 -8 3 -12 0 -21 -5 -20 -6 1 -13 -4
-16 -12 -3 -9 0 -11 8 -6 8 5 11 4 7 -2 -4 -6 -1 -22 6 -36 12 -26 12 -26 103
-20 101 6 134 -3 134 -41 0 -24 41 -66 64 -66 8 0 17 -4 20 -9 3 -5 32 -12 63
-16 86 -10 102 -15 108 -36 4 -10 13 -19 21 -19 8 0 14 -4 14 -10 0 -5 9 -10
20 -10 11 0 20 -4 20 -8 0 -11 89 -42 121 -42 17 0 30 -8 38 -23 7 -13 35 -33
62 -44 36 -16 49 -27 49 -42 0 -12 -6 -21 -12 -21 -21 -1 14 -18 42 -21 14 -1
36 1 49 5 19 7 22 13 18 36 -7 34 17 58 86 89 27 12 69 44 94 71 26 28 55 53
67 56 11 4 26 12 33 19 11 12 69 31 163 55 19 5 45 12 58 15 l22 6 0 739 c0
433 -4 749 -9 762 -5 13 -12 35 -15 50 -4 17 -20 35 -50 52 -77 45 -96 99 -48
135 61 46 109 117 103 154 -1 9 3 17 8 17 6 0 11 11 11 25 0 26 -26 35 -45 16
-6 -5 -30 -13 -54 -18 -39 -7 -48 -15 -71 -52 -30 -52 -45 -59 -123 -60 -50
-1 -61 3 -82 25 -13 14 -27 35 -30 45 -9 26 13 88 41 122 13 16 24 33 24 38 0
5 7 18 17 28 14 16 25 19 66 14 46 -6 50 -4 43 12 -3 10 0 28 9 41 16 24 99
85 112 83 13 -3 63 20 79 35 10 11 14 41 14 110 l0 96 -2945 0 -2945 0 0 -720z
m1048 491 c23 0 42 -5 42 -11 0 -5 10 -10 23 -10 30 0 60 -36 53 -64 -4 -17
-13 -22 -46 -23 -22 -1 -47 -9 -56 -17 -8 -9 -21 -16 -29 -16 -14 0 -25 -21
-25 -51 0 -14 7 -19 25 -19 14 0 25 5 25 10 0 16 89 12 106 -4 21 -22 16 -38
-21 -69 -25 -21 -49 -30 -90 -34 -30 -3 -55 -10 -55 -14 0 -5 -7 -9 -15 -9 -9
0 -23 -17 -32 -37 -8 -21 -21 -48 -26 -61 -6 -13 -44 -55 -84 -93 -55 -52 -80
-69 -101 -69 -15 0 -32 -4 -37 -8 -6 -5 -39 -17 -74 -27 l-63 -19 -39 42 c-31
35 -46 43 -85 49 -54 7 -120 41 -152 78 -12 14 -26 25 -31 25 -12 0 -22 45
-15 64 3 9 12 16 19 16 6 0 19 8 29 18 9 11 35 24 59 31 23 7 56 17 73 22 17
5 42 9 57 9 14 0 28 4 32 10 3 5 24 1 51 -10 25 -11 50 -20 55 -20 6 0 29 20
52 45 22 25 57 53 76 62 62 29 121 73 121 92 0 9 -7 26 -15 37 -20 27 -18 44
5 44 11 0 20 5 20 10 0 6 9 10 20 10 11 0 20 5 20 11 0 7 15 9 43 5 23 -3 61
-6 85 -5z m3077 -307 c22 -8 67 -22 100 -30 131 -32 180 -88 117 -133 -17 -12
-37 -21 -46 -21 -9 0 -16 -8 -16 -20 0 -11 -4 -20 -10 -20 -5 0 -9 -10 -7 -22
1 -16 12 -26 32 -33 27 -9 30 -14 33 -60 3 -58 -9 -86 -61 -144 -25 -28 -45
-41 -63 -41 -70 0 -89 57 -29 86 41 19 38 28 -12 31 -52 3 -63 9 -63 35 0 12
-16 39 -36 59 l-35 36 -3 129 c-1 71 1 137 6 147 11 21 40 21 93 1z m-1324
-456 c1 -7 1 -21 0 -30 -1 -10 4 -18 13 -18 26 0 20 -74 -10 -126 -14 -24 -22
-44 -17 -44 4 -1 -8 -8 -27 -16 -19 -8 -51 -14 -70 -14 -91 4 -120 0 -113 -15
3 -9 -3 -25 -13 -36 -18 -20 -18 -21 1 -35 10 -8 22 -14 27 -14 14 0 9 -98 -5
-112 -8 -7 -43 -33 -79 -57 -41 -28 -77 -62 -98 -95 -19 -28 -46 -64 -61 -81
-37 -42 -43 -65 -19 -65 14 0 20 7 20 24 0 25 71 96 96 96 6 0 14 9 17 20 3
11 10 20 17 20 6 0 8 -5 4 -12 -4 -7 -3 -8 4 -4 7 4 12 14 12 21 0 8 11 17 25
21 13 3 29 12 36 20 15 19 50 19 43 0 -6 -17 12 -31 21 -16 3 5 21 10 40 10
21 0 35 6 39 16 10 27 7 34 -15 34 -18 0 -19 2 -9 15 7 8 16 12 21 9 5 -2 15
12 24 32 21 50 26 40 15 -31 -4 -33 -7 -100 -5 -150 3 -65 0 -102 -12 -132
-14 -39 -14 -46 6 -111 11 -39 21 -77 21 -86 0 -9 9 -33 20 -53 10 -20 17 -40
14 -45 -3 -4 0 -8 6 -8 7 0 10 -7 6 -15 -3 -8 -2 -15 3 -15 4 0 6 -13 3 -30
-3 -22 0 -30 11 -30 8 0 21 -8 28 -17 10 -12 11 -15 1 -9 -7 4 -20 2 -28 -5
-9 -7 -14 -8 -12 -2 2 6 -1 10 -7 10 -15 -3 -16 -34 -2 -49 16 -17 20 -38 7
-38 -9 0 -6 -93 5 -110 2 -4 -4 -15 -14 -24 -15 -14 -17 -24 -9 -69 5 -28 6
-78 2 -110 -6 -54 -4 -59 15 -64 28 -7 27 -23 -1 -24 -21 -1 -20 -2 5 -11 30
-11 28 -28 -4 -28 -12 0 -19 -7 -19 -20 0 -12 5 -17 13 -14 7 2 21 -3 32 -12
16 -13 17 -15 3 -10 -20 6 -35 -10 -16 -17 10 -3 10 -7 0 -19 -11 -13 -9 -17
13 -22 35 -9 22 -26 -21 -26 -19 0 -34 -5 -34 -11 0 -6 9 -9 19 -6 10 2 25 1
32 -4 11 -7 10 -9 -4 -9 -25 0 -12 -17 31 -39 l36 -19 -32 -6 c-17 -4 -30 -12
-29 -18 1 -6 -13 -15 -31 -18 -40 -9 -38 -6 -46 -57 -5 -37 -4 -42 11 -36 13
5 15 3 8 -13 -4 -10 -8 -36 -8 -56 0 -21 -4 -35 -9 -32 -5 3 -7 13 -4 21 3 8
1 11 -4 8 -6 -3 -10 -26 -10 -51 0 -28 -4 -43 -10 -39 -5 3 -10 16 -10 27 0
27 -39 147 -57 173 -7 11 -13 28 -13 38 0 9 -6 20 -14 23 -8 3 -17 23 -21 43
-4 22 -20 52 -38 72 -17 19 -31 42 -32 52 -1 9 -15 32 -31 49 -16 17 -22 27
-14 23 13 -8 13 -7 0 11 -30 39 -196 197 -237 226 -24 16 -41 34 -37 39 3 5 2
9 -3 8 -10 -3 -63 19 -63 25 0 3 7 3 15 0 9 -4 23 4 36 20 11 14 26 26 32 26
8 0 12 26 12 85 l0 85 -32 0 c-32 0 -33 -1 -33 -44 0 -78 -54 -95 -165 -52
-54 21 -62 27 -75 64 -20 55 -74 112 -105 112 -34 0 -74 -20 -80 -41 -16 -50
-50 -45 -117 19 -47 44 -52 82 -11 82 14 0 35 -7 45 -17 17 -15 18 -15 18 13
1 16 9 40 20 53 18 21 26 23 92 20 l73 -4 -3 34 c-2 22 -15 47 -37 73 -42 46
-47 90 -12 120 18 17 32 19 80 15 32 -3 64 -11 73 -17 24 -21 86 -14 141 14
29 14 68 26 88 26 68 0 97 65 52 117 -14 16 -18 32 -15 59 4 35 1 39 -58 87
-90 72 -93 89 -18 125 29 14 63 22 99 22 43 0 55 3 55 15 0 9 12 18 28 21 27
5 64 44 42 44 -19 0 -10 53 13 74 13 12 29 31 34 41 10 18 15 18 63 6 28 -7
54 -10 57 -7 4 3 10 31 14 62 4 31 10 58 13 61 22 22 215 31 217 11z m799
-160 c18 -33 24 -37 48 -32 28 6 68 -18 58 -34 -7 -12 18 -27 43 -26 16 1 36
-10 57 -33 29 -31 31 -34 11 -30 -113 28 -424 57 -608 57 -31 0 -36 3 -35 23
3 41 19 101 30 112 18 18 134 16 235 -4 108 -21 134 -19 126 13 -5 17 -4 18 5
6 6 -8 20 -32 30 -52z m1680 -162 c49 -24 77 -63 67 -89 -5 -13 -19 -17 -64
-17 -68 0 -77 5 -81 45 -2 17 -8 32 -13 33 -5 2 -9 15 -9 28 0 20 5 24 28 24
15 0 47 -11 72 -24z m-2469 -386 c7 -33 16 -55 19 -50 3 5 23 -25 45 -68 27
-54 42 -101 51 -157 12 -83 7 -105 -25 -105 -13 0 -16 12 -17 63 -1 36 -11 90
-24 127 -12 36 -25 76 -29 90 -4 14 -12 24 -19 23 -17 -4 -49 117 -34 132 13
13 20 1 33 -55z m-720 -1420 c54 -114 110 -305 129 -435 21 -152 4 -232 -20
-88 -7 43 -17 89 -22 103 -5 14 -16 63 -23 110 -31 191 -46 242 -105 360 -16
33 -30 63 -30 67 0 15 41 -52 71 -117z m605 -90 c1 -22 10 -63 19 -91 12 -34
15 -64 10 -95 -4 -30 -3 -44 5 -44 7 0 9 -8 5 -20 -9 -27 4 -102 16 -94 5 3 9
-6 9 -19 0 -14 3 -39 7 -57 4 -22 3 -31 -4 -27 -7 5 -11 -6 -11 -28 0 -19 4
-38 9 -41 5 -3 9 -14 9 -25 0 -11 -4 -17 -10 -14 -6 4 -10 -15 -10 -50 0 -52
-2 -56 -20 -50 -22 7 -23 5 -14 -19 3 -9 11 -13 17 -9 6 4 8 -2 4 -18 -4 -13
-7 -38 -7 -54 0 -23 -5 -31 -19 -32 -11 -1 -22 6 -24 15 -2 9 -3 -14 -3 -52 1
-47 -3 -70 -11 -73 -7 -3 -13 -12 -13 -20 0 -8 -4 -11 -10 -8 -5 3 -10 -3 -10
-14 0 -28 8 -27 62 9 60 40 70 53 79 103 7 39 8 38 3 -8 -10 -104 -17 -141
-31 -156 -10 -13 -11 -18 -2 -21 9 -3 9 -9 -1 -27 -19 -36 -62 -81 -77 -81 -7
0 -13 -4 -13 -9 0 -5 -13 -14 -30 -20 -26 -8 -30 -7 -30 7 -1 12 -6 8 -16 -10
-8 -16 -19 -28 -25 -28 -6 0 -8 -4 -4 -9 3 -5 0 -13 -6 -17 -8 -4 -9 -3 -5 4
4 7 1 12 -8 12 -10 0 -16 9 -17 23 -1 20 -2 20 -6 2 -8 -31 -21 -42 -54 -47
-23 -4 -29 -1 -24 10 3 8 0 12 -7 9 -7 -2 -12 -11 -12 -20 1 -9 -2 -15 -6 -12
-5 3 -15 -1 -23 -9 -8 -8 -17 -12 -21 -9 -3 4 -6 0 -7 -8 0 -8 -4 -5 -9 7 -10
25 18 174 37 192 7 7 13 24 13 37 0 13 3 31 6 39 6 15 7 15 18 0 13 -16 76
-26 76 -11 0 4 4 5 10 2 6 -3 7 1 4 9 -7 19 -20 21 -27 4 -4 -10 -6 -10 -6 0
-1 7 6 15 14 18 27 11 16 22 -20 21 -24 -1 -34 -5 -31 -14 3 -7 1 -15 -4 -18
-6 -4 -10 3 -10 14 0 12 -4 21 -9 21 -5 0 -7 17 -5 38 2 20 7 73 10 117 4 44
9 72 11 62 3 -10 10 -17 16 -16 7 1 21 1 32 0 17 -1 18 -3 5 -11 -11 -7 -3
-10 28 -10 26 0 41 4 37 10 -4 6 5 10 21 10 21 0 25 4 21 20 -6 23 -3 24 24 9
16 -8 25 -7 39 6 10 9 24 14 29 10 7 -3 11 2 11 14 0 10 -6 21 -12 23 -8 3
-15 36 -19 89 -4 46 -10 116 -14 154 -6 59 -3 81 16 140 12 39 23 85 23 102 0
20 3 28 8 20 5 -8 8 -7 8 6 0 9 -5 17 -12 17 -6 0 -8 3 -5 6 3 4 2 14 -2 23
-14 27 -23 157 -10 144 7 -7 13 -30 15 -53z m-2440 -667 c4 -10 8 -20 8 -23 1
-3 4 -9 7 -15 13 -24 10 -83 -5 -88 -9 -4 -16 -14 -15 -24 0 -16 1 -16 9 2 7
16 9 17 9 3 1 -17 -43 -58 -61 -58 -6 0 -7 7 -4 16 3 8 2 13 -3 10 -15 -10
-33 38 -23 64 5 14 13 49 17 78 6 46 10 52 30 52 13 0 26 -8 31 -17z m2610
-502 l35 -31 -33 -15 -33 -14 33 -1 c17 0 32 -4 32 -10 0 -5 9 -10 21 -10 15
0 19 -5 15 -15 -5 -14 5 -19 31 -16 20 3 3 -30 -21 -39 -17 -7 -18 -9 -3 -9
14 -1 16 -5 8 -18 -25 -44 -26 -44 -95 22 -65 63 -68 67 -50 81 18 15 18 15
-1 9 -42 -15 -61 -16 -78 -3 -17 12 -17 19 -8 55 6 23 17 44 24 47 29 13 88
-3 123 -33z m-171 -67 c13 -6 14 -9 3 -15 -9 -7 -8 -9 7 -7 11 0 34 0 50 -1
22 -1 26 -4 16 -10 -11 -7 -9 -10 10 -13 13 -2 23 -9 22 -16 -2 -6 1 -12 7
-12 13 0 60 -41 72 -64 7 -13 7 -17 -2 -11 -8 5 -9 2 -1 -11 21 -38 52 -116
53 -132 0 -10 -3 -25 -7 -35 -5 -12 -3 -17 5 -15 14 3 15 -132 0 -179 -18 -62
-60 -138 -86 -158 -11 -8 -15 -15 -10 -15 18 0 -89 -70 -124 -81 -19 -6 -42
-13 -50 -16 -8 -4 -17 -7 -20 -7 -3 -1 -10 -5 -16 -9 -7 -3 -29 -9 -50 -13
-22 -3 -40 -7 -42 -9 -2 -1 -19 1 -38 5 -21 5 -34 4 -34 -2 0 -6 -8 -7 -17 -3
-10 4 -28 8 -40 10 -13 1 -29 8 -37 15 -9 6 -21 10 -28 7 -8 -4 -7 -6 5 -6 9
-1 17 -5 17 -11 0 -13 -11 -12 -32 4 -10 7 -15 16 -11 19 3 4 1 7 -6 7 -7 0
-25 14 -41 32 -22 24 -27 35 -18 45 8 10 7 13 -3 14 -8 1 0 5 16 10 23 6 19 7
-17 3 -31 -3 -48 -1 -48 5 0 6 5 11 10 11 6 0 10 5 10 10 0 6 -7 10 -15 10
-16 0 -31 29 -45 85 -4 17 -11 39 -16 49 -5 14 -4 17 4 12 7 -4 12 -1 12 8 0
10 -6 13 -17 9 -10 -4 -14 -2 -10 4 4 6 8 31 8 57 1 25 7 46 12 46 5 0 7 9 4
20 -3 10 0 21 5 22 6 2 3 11 -6 21 -16 16 -16 17 6 15 17 -2 23 2 23 17 0 14
7 20 22 19 18 0 20 3 13 17 -7 13 -5 18 11 22 13 4 18 10 13 18 -5 9 3 10 35
5 28 -4 40 -3 36 4 -3 5 3 10 14 10 11 0 23 5 27 12 7 11 23 -5 45 -44 7 -14
6 -18 -6 -18 -8 0 -15 6 -15 14 0 13 -20 26 -41 26 -5 0 -9 -10 -9 -21 0 -16
5 -20 20 -16 13 3 20 0 20 -10 0 -10 -6 -13 -16 -9 -14 5 -15 4 -4 -9 11 -13
10 -15 -9 -12 -11 2 -27 12 -34 22 -10 12 -16 14 -21 7 -9 -14 2 -34 14 -27 4
3 13 -9 19 -25 10 -29 9 -30 -17 -23 -24 5 -25 4 -14 -9 10 -13 10 -17 0 -21
-8 -3 -4 -9 12 -15 23 -10 21 -11 -20 -12 -36 -2 -40 -3 -20 -9 24 -7 24 -7 5
-19 -18 -10 -17 -12 15 -13 l35 -1 -37 -10 c-21 -6 -38 -14 -38 -19 0 -13 14
-11 29 4 11 10 13 9 8 -5 -5 -14 -1 -18 16 -19 17 -1 18 -2 5 -6 -10 -2 -18
-8 -18 -13 0 -5 7 -7 15 -4 10 4 13 0 10 -15 -2 -12 1 -21 8 -21 7 -1 -3 -7
-22 -15 -18 -8 -37 -12 -42 -9 -5 3 -9 1 -9 -4 0 -18 14 -21 41 -7 50 26 56
15 7 -12 -44 -24 -64 -53 -37 -53 5 0 7 5 4 10 -10 16 4 12 35 -10 16 -11 35
-17 44 -14 11 4 15 2 13 -7 -2 -8 -2 -11 1 -6 8 16 41 27 47 17 4 -6 1 -9 -7
-8 -7 2 -14 -7 -16 -18 -4 -27 26 -41 35 -17 5 13 8 12 16 -8 6 -13 9 -28 8
-34 -1 -5 6 -1 14 9 8 11 15 25 15 30 0 6 5 3 11 -7 5 -9 7 -22 4 -27 -3 -6
-1 -10 5 -10 17 0 23 29 10 45 -8 9 -8 15 -2 15 6 0 12 -5 14 -12 2 -6 20 -12
39 -13 19 -1 40 -4 48 -6 8 -2 20 7 28 21 13 24 13 25 19 4 4 -14 14 -22 29
-21 22 0 23 0 8 36 l-15 36 23 -21 c16 -14 30 -19 42 -15 17 6 16 9 -7 44
l-26 37 30 -22 c16 -12 32 -19 36 -16 12 13 -9 50 -39 69 l-32 20 30 -7 c17
-4 39 -10 50 -14 13 -5 26 -1 38 10 17 17 16 18 -30 31 l-48 13 40 6 c22 4 30
8 19 9 -23 1 -41 40 -21 42 8 0 8 2 -1 6 -6 2 -10 9 -6 14 6 11 -8 12 -22 2
-5 -5 0 0 10 10 20 18 21 18 30 -2 5 -12 15 -21 23 -21 18 0 17 19 -2 26 -8 4
-15 12 -15 20 0 8 -4 14 -10 14 -5 0 -14 10 -21 21 -8 15 -8 19 0 15 6 -4 16
-4 22 0 7 4 -9 17 -37 30 -27 13 -43 24 -36 24 19 0 14 18 -8 25 -11 3 -19 9
-19 13 3 19 -2 32 -12 32 -5 0 -7 -4 -4 -10 3 -5 -1 -10 -9 -10 -11 0 -16 9
-16 30 0 17 -4 30 -10 30 -5 0 -19 9 -30 20 l-20 20 0 -31 c0 -16 -4 -28 -9
-25 -15 9 -20 60 -8 75 9 12 9 13 -1 7 -7 -4 -19 -3 -26 3 -11 9 -13 1 -12
-43 1 -48 -1 -53 -16 -45 -11 6 -18 5 -21 -4 -2 -6 -4 2 -4 20 0 18 3 32 6 31
18 -2 21 4 12 21 -8 14 -5 23 14 40 14 11 32 21 40 21 8 0 15 5 15 10 0 14 34
12 49 -2 10 -11 11 -10 6 5 -4 9 -3 17 3 17 6 0 18 3 26 6 13 5 15 2 9 -12 -6
-17 -5 -17 10 -6 8 8 13 20 10 28 -6 16 -2 17 22 8z m-145 -298 c8 -16 18 -22
28 -19 9 4 13 2 9 -4 -4 -6 4 -14 18 -17 15 -4 23 -11 19 -18 -4 -6 -1 -9 7
-6 8 3 13 13 11 23 -3 14 -1 15 11 4 13 -12 12 -16 -5 -31 -23 -19 -18 -48 8
-48 13 0 14 -3 4 -15 -10 -12 -9 -15 5 -15 14 0 15 -3 5 -15 -11 -13 -8 -15
14 -15 14 0 26 -4 26 -10 0 -5 -6 -7 -14 -4 -8 3 -17 0 -21 -5 -3 -6 -10 -9
-14 -7 -4 3 -8 -5 -8 -16 -2 -27 -5 -29 -55 -34 -23 -3 -49 -7 -55 -9 -7 -2
-13 0 -13 5 0 6 -8 10 -18 10 -10 0 -23 5 -30 12 -8 8 -15 8 -28 -3 -11 -8
-15 -9 -11 -2 5 7 1 26 -8 43 -8 16 -13 30 -9 30 4 0 1 7 -6 15 -9 10 -9 15
-1 15 6 0 11 4 11 9 0 5 -10 7 -22 4 -21 -5 -21 -4 -6 8 9 8 18 23 20 34 4 24
20 45 31 38 4 -2 7 1 7 6 0 6 7 11 15 11 8 0 15 7 15 15 0 9 6 12 15 9 9 -4
15 0 15 10 0 24 15 20 30 -8z m-836 -82 c9 -8 16 -26 16 -39 0 -33 17 -40 30
-14 8 15 9 19 1 15 -16 -10 -13 16 4 38 15 20 15 20 16 0 0 -10 3 -13 6 -6 7
18 21 15 28 -8 7 -22 35 -28 35 -7 1 8 4 7 9 -3 11 -19 2 -110 -11 -110 -5 0
-9 15 -8 33 3 52 1 60 -15 53 -8 -3 -15 -1 -15 4 0 16 -17 11 -24 -6 -4 -10 1
-22 11 -30 11 -8 13 -13 6 -14 -7 0 -13 -5 -13 -11 0 -5 5 -7 10 -4 6 3 10 1
10 -4 0 -16 -70 -14 -71 2 0 10 -2 10 -6 0 -2 -7 -11 -13 -19 -13 -11 0 -13 9
-8 41 6 33 4 41 -7 37 -8 -3 -14 -13 -14 -24 0 -33 -18 -21 -29 19 -6 22 -14
35 -18 31 -5 -4 -8 0 -8 9 0 27 60 35 84 11z"/>
<path d="M2339 3953 c-32 -7 -52 -82 -29 -107 5 -5 6 -15 3 -22 -3 -8 2 -25
11 -39 18 -27 21 -71 6 -80 -6 -4 -3 -16 7 -30 23 -32 88 -37 78 -6 -4 14 0
20 17 24 18 5 20 9 10 19 -6 6 -12 21 -12 33 0 12 -5 26 -11 32 -7 7 -12 31
-12 54 0 23 -6 53 -13 67 -7 13 -10 30 -8 37 6 13 -21 23 -47 18z"/>
<path d="M3056 4652 c-3 -3 -26 -6 -51 -6 -25 -1 -45 -5 -46 -11 0 -5 30 -22
67 -37 64 -26 71 -27 114 -14 37 11 50 11 77 0 27 -12 34 -11 46 1 8 8 18 11
22 7 4 -4 5 7 3 23 -3 29 -5 30 -58 32 -30 1 -59 -2 -65 -6 -16 -13 -84 -21
-90 -11 -3 5 3 10 12 12 15 3 14 5 -4 10 -12 3 -24 3 -27 0z"/>
<path d="M3531 2731 c-1 -19 -5 -22 -23 -18 -13 3 -84 8 -158 12 -74 3 -153 8
-176 11 l-41 5 -12 -102 c-8 -70 -8 -106 -1 -113 5 -5 10 -17 10 -26 0 -13 -2
-13 -11 0 -9 12 -10 12 -5 -3 3 -10 7 -28 7 -40 1 -17 3 -15 9 8 l8 30 1 -27
c1 -19 6 -26 19 -25 14 1 17 7 13 26 l-5 26 -7 -25 c-4 -14 -8 -18 -8 -10 -1
8 -4 26 -7 40 -4 20 -3 22 5 10 8 -11 11 -12 11 -2 0 7 5 10 10 7 6 -3 10 0
10 7 0 9 3 9 10 -2 8 -12 10 -11 10 8 0 26 22 37 95 46 118 14 175 16 175 5 0
-6 7 -3 16 6 10 9 30 15 48 14 17 -1 48 1 69 6 37 7 37 8 31 44 -9 59 -11 61
-53 61 -33 0 -40 4 -44 23 -4 22 -4 22 -6 -2z"/>
<path d="M1550 2630 c-19 -10 -38 -16 -43 -13 -4 2 -17 1 -28 -2 -25 -8 -20
-37 17 -96 13 -21 21 -39 17 -39 -21 -1 25 -20 47 -20 14 0 36 -7 48 -16 21
-15 22 -14 12 12 -6 15 -14 32 -17 38 -10 16 -13 96 -3 96 4 0 10 14 12 30 5
35 -8 37 -62 10z"/>
<path d="M5535 2532 c-11 -2 -23 -9 -26 -14 -3 -5 -21 -9 -40 -10 -19 0 -52
-10 -74 -23 -22 -12 -56 -25 -76 -29 -31 -5 -36 -10 -32 -26 7 -27 -14 -26
-22 1 -5 16 -12 19 -28 14 -12 -4 -39 -7 -60 -6 l-38 2 3 -48 c2 -39 7 -50 28
-60 21 -10 26 -10 28 2 3 11 8 12 27 3 28 -13 59 -4 49 14 -4 7 2 5 13 -5 16
-14 31 -16 81 -11 34 4 61 10 60 13 0 3 0 15 1 26 2 18 4 17 26 -10 13 -16 27
-42 31 -57 5 -25 34 -41 34 -19 0 4 75 10 167 13 115 3 168 8 171 16 2 7 10
12 18 12 11 0 14 18 14 83 0 45 -4 77 -8 70 -5 -8 -38 -11 -112 -7 -58 2 -116
4 -129 4 -20 0 -22 3 -16 27 4 16 4 25 0 22 -3 -4 -20 -4 -38 0 -18 4 -41 5
-52 3z"/>
<path d="M5417 2164 c-21 -28 -44 -31 -49 -8 -3 14 -7 13 -30 -5 -33 -26 -38
-26 -38 -1 0 24 -13 26 -30 4 -8 -8 -22 -20 -32 -25 -16 -9 -18 -7 -12 15 8
33 -6 33 -36 1 -15 -16 -26 -21 -30 -14 -4 6 -10 -4 -14 -22 -3 -18 -4 -34 -1
-37 6 -6 214 14 236 23 22 8 61 63 57 80 -2 9 -9 5 -21 -11z"/>
<path d="M5870 2091 c0 -5 -10 -11 -23 -15 -13 -3 -34 -15 -47 -26 -13 -11
-35 -23 -49 -26 -14 -4 -44 -17 -66 -29 -22 -13 -44 -24 -50 -24 -22 -3 -91
-22 -112 -31 -31 -13 -61 -26 -100 -40 -18 -7 -33 -15 -33 -19 0 -3 -21 -19
-45 -36 -25 -16 -45 -33 -45 -36 0 -13 -53 -58 -61 -53 -5 3 -9 -4 -9 -16 0
-12 10 -25 25 -32 13 -6 22 -15 19 -20 -3 -4 2 -11 11 -14 9 -4 14 -12 11 -19
-3 -9 23 -15 102 -20 161 -10 181 -13 236 -31 87 -29 198 -127 221 -194 25
-75 30 -27 33 328 1 239 -1 362 -8 362 -5 0 -10 -4 -10 -9z"/>
<path d="M4200 1728 c-12 -8 -12 -9 3 -4 9 3 17 1 17 -5 0 -5 28 -49 63 -97
35 -50 74 -119 90 -162 16 -41 39 -102 52 -135 12 -33 26 -89 29 -125 4 -36 9
-73 12 -83 6 -20 -20 -106 -48 -155 -10 -18 -18 -34 -18 -36 0 -2 31 -6 69 -9
37 -3 86 -13 107 -22 35 -15 99 -40 284 -107 43 -16 83 -21 190 -23 74 -1 149
-5 165 -8 17 -4 57 -9 89 -12 33 -3 68 -7 78 -11 13 -4 16 -1 12 10 -3 9 -10
16 -14 16 -5 0 -8 28 -7 63 2 45 -1 61 -10 60 -7 -2 -13 2 -13 7 0 6 -4 10
-10 10 -5 0 -10 -18 -10 -40 0 -33 4 -42 22 -49 18 -6 19 -9 5 -14 -10 -4 -17
-13 -17 -21 0 -10 -6 -13 -15 -10 -12 5 -15 28 -17 108 l-2 101 -3 -97 c-3
-78 -7 -98 -18 -98 -8 0 -15 7 -15 16 0 8 -4 12 -10 9 -5 -3 -10 1 -10 10 0 9
5 13 10 10 6 -3 10 0 10 7 0 7 3 22 6 34 3 13 -1 28 -11 38 -20 20 -49 22 -42
2 3 -7 1 -18 -5 -24 -7 -7 -7 -20 -1 -39 12 -33 7 -53 -12 -53 -22 0 -25 13
-14 85 9 63 8 71 -13 101 -12 17 -27 30 -34 27 -6 -2 -15 8 -18 22 -5 21 -10
24 -21 15 -11 -9 -12 -7 -8 9 3 13 1 21 -6 21 -7 0 -10 4 -7 8 3 4 -10 16 -28
26 -19 10 -38 28 -44 41 -6 12 -30 36 -54 52 -24 17 -42 35 -41 41 2 7 -3 12
-10 12 -8 0 -22 9 -32 20 -9 10 -20 19 -24 19 -15 -2 -51 14 -51 23 0 5 -4 7
-9 4 -5 -4 -12 0 -14 6 -4 10 -6 10 -6 0 -1 -7 -5 -11 -11 -7 -5 3 -7 12 -4
19 5 14 -22 30 -36 21 -4 -2 -15 4 -25 15 -10 11 -22 20 -28 20 -5 0 -22 11
-39 25 -16 14 -38 25 -49 25 -12 0 -19 7 -19 20 0 15 -9 22 -30 27 -16 3 -30
10 -30 15 0 5 -5 6 -12 2 -7 -4 -8 -3 -4 4 4 7 15 12 24 12 9 0 -5 12 -33 26
-54 29 -75 47 -75 63 0 6 -9 11 -20 11 -11 0 -20 4 -20 9 0 5 -13 14 -29 21
-17 7 -28 17 -25 25 4 8 -3 11 -20 10 -15 -2 -24 2 -23 8 1 7 -6 11 -15 9 -11
-2 -18 3 -18 12 0 20 -13 27 -30 14z"/>
<path d="M4655 703 c-22 -8 -58 -23 -81 -34 -23 -10 -44 -19 -47 -19 -6 0
-102 -41 -144 -62 -13 -6 -23 -15 -23 -18 0 -9 185 -6 309 5 l93 8 -5 48 c-11
90 -26 101 -102 72z"/>
<path d="M5014 232 c-16 -8 -32 -20 -36 -26 -8 -12 -10 -10 -26 19 -9 15 -11
16 -12 4 0 -17 -54 -127 -70 -143 -15 -15 -12 -29 6 -22 10 4 13 2 8 -6 -5 -8
-2 -9 9 -5 25 9 21 -20 -4 -33 -16 -9 -24 -8 -37 3 -31 26 -53 29 -59 7 -8
-29 -33 -25 -33 5 0 28 -12 32 -30 10 -7 -8 -18 -15 -25 -15 -7 0 -18 -7 -25
-15 -12 -14 7 -16 174 -15 139 1 194 5 214 16 15 8 33 14 40 14 15 0 16 17 0
26 -7 4 -28 11 -48 14 -24 4 -34 11 -31 21 2 8 4 19 5 25 1 6 16 25 34 42 32
31 58 81 44 83 -43 7 -73 4 -98 -9z"/>
</g>
</svg>
